<mxfile host="app.diagrams.net" agent="Mozilla/5.0 (Windows NT 10.0; Win64; x64) AppleWebKit/537.36 (KHTML, like Gecko) Chrome/132.0.0.0 Safari/537.36" version="26.0.9">
  <diagram name="Page-1" id="i8HpmR7_TVPuBiLwgD9I">
    <mxGraphModel dx="2074" dy="1132" grid="1" gridSize="10" guides="1" tooltips="1" connect="1" arrows="1" fold="1" page="1" pageScale="1" pageWidth="850" pageHeight="1100" math="0" shadow="0">
      <root>
        <mxCell id="0" />
        <mxCell id="1" parent="0" />
        <mxCell id="4ZWiOs7FfMILyPZ62Rvh-3" value="Start Web Application" style="strokeWidth=2;html=1;shape=mxgraph.flowchart.start_1;whiteSpace=wrap;" vertex="1" parent="1">
          <mxGeometry x="400" y="280" width="100" height="50" as="geometry" />
        </mxCell>
        <mxCell id="4ZWiOs7FfMILyPZ62Rvh-23" value="PROCESS" style="rounded=1;whiteSpace=wrap;html=1;absoluteArcSize=1;arcSize=14;strokeWidth=2;" vertex="1" parent="1">
          <mxGeometry x="15" y="60" width="100" height="50" as="geometry" />
        </mxCell>
        <mxCell id="4ZWiOs7FfMILyPZ62Rvh-24" value="START/END" style="strokeWidth=2;html=1;shape=mxgraph.flowchart.start_1;whiteSpace=wrap;" vertex="1" parent="1">
          <mxGeometry x="155" y="60" width="100" height="50" as="geometry" />
        </mxCell>
        <mxCell id="4ZWiOs7FfMILyPZ62Rvh-25" value="DATABASE" style="strokeWidth=2;html=1;shape=mxgraph.flowchart.database;whiteSpace=wrap;" vertex="1" parent="1">
          <mxGeometry x="295" y="60" width="80" height="80" as="geometry" />
        </mxCell>
        <mxCell id="4ZWiOs7FfMILyPZ62Rvh-26" value="DECISION" style="strokeWidth=2;html=1;shape=mxgraph.flowchart.decision;whiteSpace=wrap;" vertex="1" parent="1">
          <mxGeometry x="420" y="60" width="80" height="80" as="geometry" />
        </mxCell>
        <mxCell id="4ZWiOs7FfMILyPZ62Rvh-27" value="&lt;b&gt;SYMBOLS TEMPLATE&lt;/b&gt;" style="text;html=1;align=center;verticalAlign=middle;whiteSpace=wrap;rounded=0;" vertex="1" parent="1">
          <mxGeometry x="190" y="10" width="175" height="30" as="geometry" />
        </mxCell>
        <mxCell id="4ZWiOs7FfMILyPZ62Rvh-39" style="edgeStyle=orthogonalEdgeStyle;rounded=0;orthogonalLoop=1;jettySize=auto;html=1;entryX=1;entryY=0.5;entryDx=0;entryDy=0;" edge="1" parent="1" source="4ZWiOs7FfMILyPZ62Rvh-34" target="4ZWiOs7FfMILyPZ62Rvh-37">
          <mxGeometry relative="1" as="geometry" />
        </mxCell>
        <mxCell id="4ZWiOs7FfMILyPZ62Rvh-41" value="Yes" style="edgeLabel;html=1;align=center;verticalAlign=middle;resizable=0;points=[];" vertex="1" connectable="0" parent="4ZWiOs7FfMILyPZ62Rvh-39">
          <mxGeometry x="-0.1306" y="2" relative="1" as="geometry">
            <mxPoint as="offset" />
          </mxGeometry>
        </mxCell>
        <mxCell id="4ZWiOs7FfMILyPZ62Rvh-40" style="edgeStyle=orthogonalEdgeStyle;rounded=0;orthogonalLoop=1;jettySize=auto;html=1;entryX=0;entryY=0.5;entryDx=0;entryDy=0;" edge="1" parent="1" source="4ZWiOs7FfMILyPZ62Rvh-34" target="4ZWiOs7FfMILyPZ62Rvh-38">
          <mxGeometry relative="1" as="geometry" />
        </mxCell>
        <mxCell id="4ZWiOs7FfMILyPZ62Rvh-42" value="No" style="edgeLabel;html=1;align=center;verticalAlign=middle;resizable=0;points=[];" vertex="1" connectable="0" parent="4ZWiOs7FfMILyPZ62Rvh-40">
          <mxGeometry x="-0.0862" y="-1" relative="1" as="geometry">
            <mxPoint as="offset" />
          </mxGeometry>
        </mxCell>
        <mxCell id="4ZWiOs7FfMILyPZ62Rvh-34" value="Account?" style="strokeWidth=2;html=1;shape=mxgraph.flowchart.decision;whiteSpace=wrap;" vertex="1" parent="1">
          <mxGeometry x="410" y="400" width="80" height="80" as="geometry" />
        </mxCell>
        <mxCell id="4ZWiOs7FfMILyPZ62Rvh-36" style="edgeStyle=orthogonalEdgeStyle;rounded=0;orthogonalLoop=1;jettySize=auto;html=1;entryX=0.5;entryY=0;entryDx=0;entryDy=0;entryPerimeter=0;" edge="1" parent="1" source="4ZWiOs7FfMILyPZ62Rvh-3" target="4ZWiOs7FfMILyPZ62Rvh-34">
          <mxGeometry relative="1" as="geometry" />
        </mxCell>
        <mxCell id="4ZWiOs7FfMILyPZ62Rvh-37" value="Login" style="rounded=1;whiteSpace=wrap;html=1;absoluteArcSize=1;arcSize=14;strokeWidth=2;" vertex="1" parent="1">
          <mxGeometry x="227.5" y="415" width="100" height="50" as="geometry" />
        </mxCell>
        <mxCell id="4ZWiOs7FfMILyPZ62Rvh-55" style="edgeStyle=orthogonalEdgeStyle;rounded=0;orthogonalLoop=1;jettySize=auto;html=1;entryX=0.5;entryY=0;entryDx=0;entryDy=0;" edge="1" parent="1" source="4ZWiOs7FfMILyPZ62Rvh-38" target="4ZWiOs7FfMILyPZ62Rvh-54">
          <mxGeometry relative="1" as="geometry" />
        </mxCell>
        <mxCell id="4ZWiOs7FfMILyPZ62Rvh-56" value="Submit" style="edgeLabel;html=1;align=center;verticalAlign=middle;resizable=0;points=[];" vertex="1" connectable="0" parent="4ZWiOs7FfMILyPZ62Rvh-55">
          <mxGeometry x="-0.1117" y="2" relative="1" as="geometry">
            <mxPoint as="offset" />
          </mxGeometry>
        </mxCell>
        <mxCell id="4ZWiOs7FfMILyPZ62Rvh-38" value="Signup" style="rounded=1;whiteSpace=wrap;html=1;absoluteArcSize=1;arcSize=14;strokeWidth=2;" vertex="1" parent="1">
          <mxGeometry x="570" y="415" width="100" height="50" as="geometry" />
        </mxCell>
        <mxCell id="4ZWiOs7FfMILyPZ62Rvh-51" value="DATA" style="shape=parallelogram;html=1;strokeWidth=2;perimeter=parallelogramPerimeter;whiteSpace=wrap;rounded=1;arcSize=12;size=0.23;" vertex="1" parent="1">
          <mxGeometry x="550" y="70" width="100" height="50" as="geometry" />
        </mxCell>
        <mxCell id="4ZWiOs7FfMILyPZ62Rvh-54" value="DATA" style="shape=parallelogram;html=1;strokeWidth=2;perimeter=parallelogramPerimeter;whiteSpace=wrap;rounded=1;arcSize=12;size=0.23;" vertex="1" parent="1">
          <mxGeometry x="570" y="540" width="100" height="50" as="geometry" />
        </mxCell>
        <mxCell id="4ZWiOs7FfMILyPZ62Rvh-57" value="DATABASE" style="strokeWidth=2;html=1;shape=mxgraph.flowchart.database;whiteSpace=wrap;" vertex="1" parent="1">
          <mxGeometry x="410" y="650" width="80" height="80" as="geometry" />
        </mxCell>
        <mxCell id="4ZWiOs7FfMILyPZ62Rvh-60" value="Valid?" style="strokeWidth=2;html=1;shape=mxgraph.flowchart.decision;whiteSpace=wrap;" vertex="1" parent="1">
          <mxGeometry x="580" y="650" width="80" height="80" as="geometry" />
        </mxCell>
        <mxCell id="4ZWiOs7FfMILyPZ62Rvh-61" style="edgeStyle=orthogonalEdgeStyle;rounded=0;orthogonalLoop=1;jettySize=auto;html=1;entryX=0.5;entryY=0;entryDx=0;entryDy=0;entryPerimeter=0;" edge="1" parent="1" source="4ZWiOs7FfMILyPZ62Rvh-54" target="4ZWiOs7FfMILyPZ62Rvh-60">
          <mxGeometry relative="1" as="geometry" />
        </mxCell>
        <mxCell id="4ZWiOs7FfMILyPZ62Rvh-62" style="edgeStyle=orthogonalEdgeStyle;rounded=0;orthogonalLoop=1;jettySize=auto;html=1;entryX=1;entryY=0.5;entryDx=0;entryDy=0;entryPerimeter=0;" edge="1" parent="1" source="4ZWiOs7FfMILyPZ62Rvh-60" target="4ZWiOs7FfMILyPZ62Rvh-57">
          <mxGeometry relative="1" as="geometry" />
        </mxCell>
        <mxCell id="4ZWiOs7FfMILyPZ62Rvh-63" value="Yes" style="edgeLabel;html=1;align=center;verticalAlign=middle;resizable=0;points=[];" vertex="1" connectable="0" parent="4ZWiOs7FfMILyPZ62Rvh-62">
          <mxGeometry x="-0.0575" y="3" relative="1" as="geometry">
            <mxPoint as="offset" />
          </mxGeometry>
        </mxCell>
        <mxCell id="4ZWiOs7FfMILyPZ62Rvh-64" style="edgeStyle=orthogonalEdgeStyle;rounded=0;orthogonalLoop=1;jettySize=auto;html=1;entryX=1.007;entryY=0.356;entryDx=0;entryDy=0;entryPerimeter=0;" edge="1" parent="1" source="4ZWiOs7FfMILyPZ62Rvh-60" target="4ZWiOs7FfMILyPZ62Rvh-38">
          <mxGeometry relative="1" as="geometry">
            <Array as="points">
              <mxPoint x="730" y="690" />
              <mxPoint x="730" y="433" />
            </Array>
          </mxGeometry>
        </mxCell>
        <mxCell id="4ZWiOs7FfMILyPZ62Rvh-65" value="No" style="edgeLabel;html=1;align=center;verticalAlign=middle;resizable=0;points=[];" vertex="1" connectable="0" parent="4ZWiOs7FfMILyPZ62Rvh-64">
          <mxGeometry x="0.0295" relative="1" as="geometry">
            <mxPoint as="offset" />
          </mxGeometry>
        </mxCell>
        <mxCell id="4ZWiOs7FfMILyPZ62Rvh-68" style="edgeStyle=orthogonalEdgeStyle;rounded=0;orthogonalLoop=1;jettySize=auto;html=1;entryX=0;entryY=0.5;entryDx=0;entryDy=0;entryPerimeter=0;" edge="1" parent="1" source="4ZWiOs7FfMILyPZ62Rvh-37" target="4ZWiOs7FfMILyPZ62Rvh-57">
          <mxGeometry relative="1" as="geometry">
            <Array as="points">
              <mxPoint x="278" y="690" />
            </Array>
          </mxGeometry>
        </mxCell>
        <mxCell id="4ZWiOs7FfMILyPZ62Rvh-72" style="edgeStyle=orthogonalEdgeStyle;rounded=0;orthogonalLoop=1;jettySize=auto;html=1;entryX=0.25;entryY=1;entryDx=0;entryDy=0;" edge="1" parent="1" source="4ZWiOs7FfMILyPZ62Rvh-70" target="4ZWiOs7FfMILyPZ62Rvh-37">
          <mxGeometry relative="1" as="geometry" />
        </mxCell>
        <mxCell id="4ZWiOs7FfMILyPZ62Rvh-73" value="No" style="edgeLabel;html=1;align=center;verticalAlign=middle;resizable=0;points=[];" vertex="1" connectable="0" parent="4ZWiOs7FfMILyPZ62Rvh-72">
          <mxGeometry x="-0.7229" relative="1" as="geometry">
            <mxPoint as="offset" />
          </mxGeometry>
        </mxCell>
        <mxCell id="4ZWiOs7FfMILyPZ62Rvh-70" value="User Exists?" style="strokeWidth=2;html=1;shape=mxgraph.flowchart.decision;whiteSpace=wrap;" vertex="1" parent="1">
          <mxGeometry x="410" y="820" width="80" height="80" as="geometry" />
        </mxCell>
        <mxCell id="4ZWiOs7FfMILyPZ62Rvh-71" style="edgeStyle=orthogonalEdgeStyle;rounded=0;orthogonalLoop=1;jettySize=auto;html=1;entryX=0.5;entryY=0;entryDx=0;entryDy=0;entryPerimeter=0;" edge="1" parent="1" source="4ZWiOs7FfMILyPZ62Rvh-57" target="4ZWiOs7FfMILyPZ62Rvh-70">
          <mxGeometry relative="1" as="geometry" />
        </mxCell>
        <mxCell id="4ZWiOs7FfMILyPZ62Rvh-79" style="edgeStyle=orthogonalEdgeStyle;rounded=0;orthogonalLoop=1;jettySize=auto;html=1;entryX=1;entryY=0.5;entryDx=0;entryDy=0;" edge="1" parent="1" source="4ZWiOs7FfMILyPZ62Rvh-75" target="4ZWiOs7FfMILyPZ62Rvh-78">
          <mxGeometry relative="1" as="geometry" />
        </mxCell>
        <mxCell id="4ZWiOs7FfMILyPZ62Rvh-80" value="Yes" style="edgeLabel;html=1;align=center;verticalAlign=middle;resizable=0;points=[];" vertex="1" connectable="0" parent="4ZWiOs7FfMILyPZ62Rvh-79">
          <mxGeometry x="-0.0136" relative="1" as="geometry">
            <mxPoint as="offset" />
          </mxGeometry>
        </mxCell>
        <mxCell id="4ZWiOs7FfMILyPZ62Rvh-82" style="edgeStyle=orthogonalEdgeStyle;rounded=0;orthogonalLoop=1;jettySize=auto;html=1;entryX=0;entryY=0.5;entryDx=0;entryDy=0;" edge="1" parent="1" source="4ZWiOs7FfMILyPZ62Rvh-75" target="4ZWiOs7FfMILyPZ62Rvh-81">
          <mxGeometry relative="1" as="geometry" />
        </mxCell>
        <mxCell id="4ZWiOs7FfMILyPZ62Rvh-83" value="No" style="edgeLabel;html=1;align=center;verticalAlign=middle;resizable=0;points=[];" vertex="1" connectable="0" parent="4ZWiOs7FfMILyPZ62Rvh-82">
          <mxGeometry x="-0.0345" y="-2" relative="1" as="geometry">
            <mxPoint as="offset" />
          </mxGeometry>
        </mxCell>
        <mxCell id="4ZWiOs7FfMILyPZ62Rvh-75" value="Is admin?" style="strokeWidth=2;html=1;shape=mxgraph.flowchart.decision;whiteSpace=wrap;" vertex="1" parent="1">
          <mxGeometry x="410" y="960" width="80" height="80" as="geometry" />
        </mxCell>
        <mxCell id="4ZWiOs7FfMILyPZ62Rvh-76" style="edgeStyle=orthogonalEdgeStyle;rounded=0;orthogonalLoop=1;jettySize=auto;html=1;entryX=0.5;entryY=0;entryDx=0;entryDy=0;entryPerimeter=0;" edge="1" parent="1" source="4ZWiOs7FfMILyPZ62Rvh-70" target="4ZWiOs7FfMILyPZ62Rvh-75">
          <mxGeometry relative="1" as="geometry" />
        </mxCell>
        <mxCell id="4ZWiOs7FfMILyPZ62Rvh-77" value="Yes" style="edgeLabel;html=1;align=center;verticalAlign=middle;resizable=0;points=[];" vertex="1" connectable="0" parent="4ZWiOs7FfMILyPZ62Rvh-76">
          <mxGeometry x="-0.0448" y="2" relative="1" as="geometry">
            <mxPoint as="offset" />
          </mxGeometry>
        </mxCell>
        <mxCell id="4ZWiOs7FfMILyPZ62Rvh-78" value="Admin Panel" style="rounded=1;whiteSpace=wrap;html=1;absoluteArcSize=1;arcSize=14;strokeWidth=2;" vertex="1" parent="1">
          <mxGeometry x="227.5" y="975" width="100" height="50" as="geometry" />
        </mxCell>
        <mxCell id="4ZWiOs7FfMILyPZ62Rvh-81" value="User Panel" style="rounded=1;whiteSpace=wrap;html=1;absoluteArcSize=1;arcSize=14;strokeWidth=2;" vertex="1" parent="1">
          <mxGeometry x="570" y="975" width="100" height="50" as="geometry" />
        </mxCell>
        <mxCell id="4ZWiOs7FfMILyPZ62Rvh-84" value="&lt;font style=&quot;font-size: 32px;&quot;&gt;&lt;b&gt;Data flow&amp;nbsp;&lt;/b&gt;&lt;/font&gt;&lt;div&gt;&lt;font style=&quot;font-size: 32px;&quot;&gt;&lt;b&gt;(User Authentication)&lt;/b&gt;&lt;/font&gt;&lt;/div&gt;" style="text;html=1;align=center;verticalAlign=middle;whiteSpace=wrap;rounded=0;" vertex="1" parent="1">
          <mxGeometry x="270" y="210" width="380" height="50" as="geometry" />
        </mxCell>
      </root>
    </mxGraphModel>
  </diagram>
</mxfile>
